<?xml version="1.0" encoding="utf-8"?>
<svg version="1.1" xmlns="http://www.w3.org/2000/svg" xmlns:xlink="http://www.w3.org/1999/xlink" height="15.983352041334001" width="51.89999999999955">
  <defs>
    <path id="path-1" opacity="1" fill-rule="evenodd" d="M23.52219205134504,13.999737001380675 L26.392001974820666,10.007078129052314 L23.52219205134504,6.243297790806467 L23.52219205134504,4.56485520753467 L32.772204393976295,4.56485520753467 L32.772204393976295,6.3068751613849425 L25.969217477165778,6.3068751613849425 L28.8390274006414,10.007078129052312 L25.78985435694855,13.936159630802198 L32.75939274253221,13.936159630802198 L32.75939274253221,15.678179584652474 L23.509380399900955,15.678179584652474 L23.52219205134504,13.999737001380675Z"/>
    <path id="path-2" opacity="1" fill-rule="evenodd" d="M8.25070419311487,5.785540914625017 C7.392322921752566,4.984465932935564 6.213652038573855,4.5902865887583175 4.714687728881472,4.5902865887583175 C2.7929405212398706,4.5902865887583175 1.3324111938472925,5.289637899488298 0.34591522216760495,6.688340520948259 L2.139545822143191,7.8073018551767746 C2.805752182006472,6.853640890210954 3.7025684356685815,6.3831685543955246 4.829992675780886,6.3831685543955246 C5.585880661010378,6.3831685543955246 6.226461791991824,6.637477254957048 6.7901748657222925,7.120665884107439 C7.34107627868616,7.603854513257829 7.622932815551394,8.201480245679704 7.622932815551394,8.900832510084001 L7.622932815551394,9.35858855256447 C6.841421508788699,8.91354689607033 5.854925537109011,8.697385168165056 4.650629425048464,8.697385168165056 C3.2413486480709253,8.697385168165056 2.1139225006099878,9.015271520704118 1.2683547973629175,9.676476812452165 C0.4227851867672143,10.33768019685158 3.814693627646193e-7,11.215049123853532 3.814693627646193e-7,12.321294164747087 C3.814693627646193e-7,13.363963461011735 0.3971618652340112,14.241332388013689 1.191484832763308,14.940682745069353 C1.9986175537105737,15.640033102125017 2.985115432738894,15.983352041334001 4.176599884032839,15.983352041334001 C5.573069000243777,15.983352041334001 6.68768157958948,15.373008108228532 7.5204395294185815,14.15232405671486 L7.6101211547847925,14.15232405671486 L7.6101211547847925,15.640033102125017 L9.544680023192996,15.640033102125017 L9.544680023192996,9.053418493360368 C9.544680023192996,7.6674302578867355 9.121897125243777,6.573901510328142 8.25070419311487,5.785540914625017 L2.754505538940066,13.66913542756447 C2.306097412109011,13.325816488355485 2.0882991790767846,12.880774831861345 2.0882991790767846,12.359441137403337 C2.0882991790767846,11.77452979096779 2.370155715942019,11.2913411618174 2.9082454681392846,10.897160863965837 C3.459146881103152,10.502982473462907 4.150974655151003,10.31224951753029 4.970920944213503,10.31224951753029 C6.098345184325808,10.31224951753029 6.982349777221316,10.553843832105485 7.6101211547847925,11.049746847242204 C7.6101211547847925,11.888968801587907 7.277017974853152,12.626466131299821 6.610811614989871,13.249524450391618 C5.944605255126589,13.872582769483415 5.175907516479128,14.190469122022478 4.330337905883425,14.190469122022478 C3.728189849853152,14.190469122022478 3.2029136657711206,14.012452459424821 2.754505538940066,13.66913542756447 L8.25070419311487,5.785540914625017Z"/>
    <path id="path-3" opacity="1" fill-rule="evenodd" d="M12.606665039062136,14.317624425977556 C13.618788146972292,15.436585760206071 14.823080444335574,15.983352041334001 16.232363128661746,15.983352041334001 C17.026686096191042,15.983352041334001 17.7569488525387,15.818049764722673 18.397531890868777,15.487449026197282 C19.050924682616824,15.144130086988298 19.563391113280886,14.711802816480485 19.90930786132776,14.15232405671486 L19.99898757934534,14.15232405671486 L19.99898757934534,15.640033102125017 L21.933546447753542,15.640033102125017 L21.933546447753542,3.3387550502084196e-7 L19.90930786132776,3.3387550502084196e-7 L19.90930786132776,4.908173894971696 L19.99898757934534,6.395883894056169 L19.90930786132776,6.395883894056169 C19.550581359862917,5.836402273267595 19.050924682616824,5.391361570447771 18.397531890868777,5.060758924573747 C17.74413909912073,4.73015723237404 17.026686096191042,4.564854955762712 16.232363128661746,4.564854955762712 C14.823080444335574,4.564854955762712 13.618788146972292,5.124336576551286 12.606665039062136,6.230582571119157 C11.607355499267214,7.349543905347673 11.107702636718386,8.697383260816423 11.107702636718386,10.274104452222673 C11.107702636718386,11.850821828931657 11.607355499267214,13.198661184400407 12.606665039062136,14.317624425977556 L19.012487792968386,13.084224081128923 C18.371908569335574,13.796290731519548 17.564772033691042,14.152322149366228 16.56546249389612,14.152322149366228 C15.604589843749636,14.152322149366228 14.784643554687136,13.783574438184587 14.118437194823855,13.058791494459001 C13.465044403075808,12.346724844068376 13.131941223144167,11.418496465772478 13.131941223144167,10.286818838209001 C13.131941223144167,9.167857503980485 13.452230834960574,8.239627218335954 14.118437194823855,7.514846181959001 C14.784643554687136,6.790063238233415 15.591780090331667,6.421314573377458 16.56546249389612,6.421314573377458 C17.551962280273074,6.421314573377458 18.371908569335574,6.790063238233415 19.012487792968386,7.514846181959001 C19.6658843994137,8.239627218335954 19.99898757934534,9.167857503980485 19.99898757934534,10.286818838209001 C19.99898757934534,11.443927145093767 19.678694152831667,12.372157430738298 19.012487792968386,13.084224081128923 L12.606665039062136,14.317624425977556Z"/>
    <path id="path-4" opacity="1" fill-rule="evenodd" d="M40.16452727721497,10.007078129052282 L44.13613922488212,15.627317688189638 L41.67630214761731,15.627317688189638 L38.92179708713848,11.545650497051422 L36.218538632436,15.627317688189638 L33.77151320661527,15.627317688189638 L37.70469019995015,10.007078129052282 L33.86119476672388,4.577570681650354 L36.218538632435994,4.577570681650354 L38.97304369291482,8.481221235168835 L41.59943223895278,4.577570681650354 L44.059269316217595,4.577570681650354 L40.16452727721497,10.007078129052282Z"/>
    <path id="path-5" opacity="1" fill-rule="evenodd" d="M50.00387558627457,15.805334325809376 C49.09424833374433,15.805334325809376 48.338360898543165,15.525593895264077 47.74902493211513,14.96611303417348 C47.146877314243,14.40663217308288 46.83939767958489,13.63098825202546 46.82658602814081,12.639181271001219 L46.82658602814081,6.47217632488894 L44.87921500863948,6.47217632488894 L44.87921500863948,4.5775706816503225 L46.82658602814081,4.5775706816503225 L46.82658602814081,2.6448186160646188 L48.91488521352711,2.6448186160646188 L48.91488521352711,4.5775706816503225 L51.6309553196737,4.5775706816503225 L51.6309553196737,6.47217632488894 L48.90207356208302,6.47217632488894 L48.90207356208302,11.977976616985055 C48.90207356208302,12.715474115695388 49.04300172796799,13.211377606207511 49.337669711182,13.478402562637113 C49.619526042951925,13.745427519066716 49.95262898049821,13.87258226022367 50.31135522093267,13.87258226022367 C50.47790668970581,13.87258226022367 50.644458158478955,13.859866786107975 50.798197975808,13.821720363760889 C50.951937793137056,13.783573941413803 51.1056776104661,13.732712044951018 51.246605776351075,13.669134674372543 L51.89999999999955,15.512878421148379 C51.36191063934787,15.70361053288381 50.72132806714348,15.805334325809373 50.00387558627457,15.805334325809376Z"/>
  </defs>
  <g opacity="1">
    <g opacity="1">
      <use xlink:href="#path-1" fill="rgb(237,53,68)" fill-opacity="1"/>
    </g>
    <g>
      <use xlink:href="#path-2" fill="rgb(24,24,24)" fill-opacity="1"/>
    </g>
    <g>
      <use xlink:href="#path-3" fill="rgb(24,24,24)" fill-opacity="1"/>
    </g>
    <g opacity="1">
      <use xlink:href="#path-4" fill="rgb(24,24,24)" fill-opacity="1"/>
    </g>
    <g opacity="1">
      <use xlink:href="#path-5" fill="rgb(24,24,24)" fill-opacity="1"/>
    </g>
  </g>
</svg>