<?xml version="1.0" encoding="utf-8"?>
<svg version="1.1" xmlns="http://www.w3.org/2000/svg" xmlns:xlink="http://www.w3.org/1999/xlink" height="41" width="131">
  <defs>
    <path id="path-1" opacity="1" fill-rule="evenodd" d="M60.289928412737666,29.71320249171634 L65.26647741298441,22.950309138038904 L60.289928412737666,16.575097568967177 L60.289928412737666,13.732097815191947 L76.33041224389014,13.732097815191947 L76.33041224389014,16.682786953579875 L64.53332510491235,16.682786953579875 L69.5098741051591,22.950309138038904 L64.22229079239693,29.60551310710364 L76.3081955072819,29.60551310710364 L76.3081955072819,32.556202245491576 L60.26771167612942,32.556202245491576 L60.289928412737666,29.71320249171634Z"/>
    <path id="path-2" opacity="1" fill-rule="evenodd" d="M33.807579040527344,15.799734115600586 C32.31905746459961,14.44284725189209 30.275115966796875,13.77517318725586 27.675758361816406,13.77517318725586 C24.34324836730957,13.77517318725586 21.8105411529541,14.959756851196289 20.099851608276367,17.328922271728516 L23.210195541381836,19.22425651550293 C24.36546516418457,17.608915328979492 25.920637130737305,16.812013626098633 27.875709533691406,16.812013626098633 C29.18649673461914,16.812013626098633 30.297332763671875,17.24277114868164 31.274871826171875,18.06121063232422 C32.23019027709961,18.879650115966797 32.718955993652344,19.891929626464844 32.718955993652344,21.076513290405273 L32.718955993652344,21.851877212524414 C31.363737106323242,21.098051071166992 29.65304946899414,20.73190689086914 27.564674377441406,20.73190689086914 C25.120834350585938,20.73190689086914 23.165761947631836,21.270355224609375 21.6994571685791,22.390323638916016 C20.233152389526367,23.51029396057129 19.5,24.99640655517578 19.5,26.870201110839844 C19.5,28.636308670043945 20.188718795776367,30.122421264648438 21.5661563873291,31.307004928588867 C22.965810775756836,32.4915885925293 24.67650032043457,33.07311248779297 26.742656707763672,33.07311248779297 C29.16427993774414,33.07311248779297 31.097137451171875,32.03929138183594 32.54122543334961,29.971656799316406 L32.696739196777344,29.971656799316406 L32.696739196777344,32.4915885925293 L36.05146789550781,32.4915885925293 L36.05146789550781,21.33496856689453 C36.05146789550781,18.98733901977539 35.31831741333008,17.135082244873047 33.807579040527344,15.799734115600586 L24.27659797668457,29.153217315673828 C23.499011993408203,28.57169532775879 23.121328353881836,27.817869186401367 23.121328353881836,26.934816360473633 C23.121328353881836,25.944074630737305 23.610095977783203,25.125635147094727 24.54319953918457,24.45796012878418 C25.498519897460938,23.790287017822266 26.698223114013672,23.46721839904785 28.120094299316406,23.46721839904785 C30.075166702270508,23.46721839904785 31.608121871948242,23.87643814086914 32.69674301147461,24.716415405273438 C32.69674301147461,26.137914657592773 32.11910629272461,27.38711166381836 30.963836669921875,28.442468643188477 C29.80856704711914,29.49782371520996 28.475563049316406,30.036270141601562 27.009258270263672,30.036270141601562 C25.965070724487305,30.036270141601562 25.054183959960938,29.7347412109375 24.27659797668457,29.153217315673828 L33.807579040527344,15.799734115600586Z"/>
    <path id="path-3" opacity="1" fill-rule="evenodd" d="M41.36126708984375,30.251649856567383 C43.116390228271484,32.14698028564453 45.20476150512695,33.07311248779297 47.64860534667969,33.07311248779297 C49.02604293823242,33.07311248779297 50.292396545410156,32.793121337890625 51.40323257446289,32.233131408691406 C52.536285400390625,31.651611328125 53.424957275390625,30.919322967529297 54.02480697631836,29.971656799316406 L54.18032455444336,29.971656799316406 L54.18032455444336,32.4915885925293 L57.53504943847656,32.4915885925293 L57.53504943847656,6 L54.02480697631836,6 L54.02480697631836,14.313620567321777 L54.18032455444336,16.833553314208984 L54.02480697631836,16.833553314208984 C53.402740478515625,15.885885238647461 52.536285400390625,15.132060050964355 51.40323257446289,14.572074890136719 C50.270179748535156,14.012090682983398 49.02604293823242,13.732097625732422 47.64860534667969,13.732097625732422 C45.20476150512695,13.732097625732422 43.116390228271484,14.679764747619629 41.36126708984375,16.553558349609375 L38.76190948486328,23.402605056762695 C38.76190948486328,26.073301315307617 39.628360748291016,28.35631561279297 41.36126708984375,30.251649856567383 L52.46963882446289,28.1624755859375 C51.358802795410156,29.368595123291016 49.959144592285156,29.971656799316406 48.22624206542969,29.971656799316406 C46.55998611450195,29.971656799316406 45.13811492919922,29.347057342529297 43.982845306396484,28.119400024414062 C42.84979248046875,26.91327667236328 42.27215576171875,25.341012954711914 42.27215576171875,23.42414093017578 C42.27215576171875,21.52880859375 42.82757568359375,19.95654296875 43.982845306396484,18.728883743286133 C45.13811492919922,17.501224517822266 46.53776931762695,16.87662696838379 48.22624206542969,16.87662696838379 C49.936927795410156,16.87662696838379 51.358802795410156,17.501224517822266 52.46963882446289,18.728883743286133 C53.602691650390625,19.95654296875 54.180328369140625,21.52880859375 54.180328369140625,23.42414093017578 C54.180328369140625,25.38408851623535 53.624908447265625,26.95635223388672 52.46963882446289,28.1624755859375 L41.36126708984375,30.251649856567383Z"/>
    <path id="path-4" opacity="1" fill-rule="evenodd" d="M89.14946926684806,22.950309138038957 L96.03665761540455,32.470050737801564 L91.77104418662118,32.470050737801564 L86.99444581584814,25.556392245666277 L82.30671439150807,32.470050737801564 L78.06331769933294,32.470050737801564 L84.88385583806469,22.950309138038957 L78.21883485559067,13.753635692114448 L82.30671439150805,13.753635692114448 L87.08331276228111,20.365763907334177 L91.6377437669717,13.753635692114448 L95.90335719575506,13.753635692114448 L89.14946926684806,22.950309138038957Z"/>
    <path id="path-5" opacity="1" fill-rule="evenodd" d="M106.21192298197978,32.77158101471639 C104.6345346827944,32.77158101471639 103.32374722290795,32.297747722420524 102.3017773389287,31.350081137828795 C101.25759071834119,30.402414553237058 100.72438903974331,29.088604060962155 100.70217230313509,27.408649661004084 L100.70217230313509,16.96277935357248 L97.32522833868188,16.96277935357248 L97.32522833868188,13.753635692114107 L100.70217230313509,13.753635692114107 L100.70217230313509,10.47987839988812 L104.32350037027898,10.47987839988812 L104.32350037027898,13.753635692114107 L109.03344853122685,13.753635692114107 L109.03344853122685,16.96277935357248 L104.30128363367072,16.96277935357248 L104.30128363367072,26.288680061032032 C104.30128363367072,27.53787692253932 104.54566773636142,28.377854122518357 105.05665267835104,28.83014953789168 C105.54542088373242,29.282444953265006 106.1230560355468,29.497823722490402 106.74512466057764,29.497823722490402 C107.03394223648483,29.497823722490402 107.32275981239201,29.47628584556786 107.58936065169095,29.41167221480024 C107.85596149098988,29.347058584032624 108.12256233028882,29.260907076342463 108.36694643297952,29.153217691729772 L109.5,32.27620984549798 C108.56689706245372,32.59927799933607 107.45606023204148,32.77158101471639 106.21192298197978,32.77158101471639Z"/>
  </defs>
  <g opacity="1">
    <g opacity="1">
      <g>
        <use xlink:href="#path-1" fill="rgb(237,53,68)" fill-opacity="1"/>
      </g>
      <g>
        <use xlink:href="#path-2" fill="rgb(24,24,24)" fill-opacity="1"/>
      </g>
      <g>
        <use xlink:href="#path-3" fill="rgb(24,24,24)" fill-opacity="1"/>
      </g>
      <g>
        <use xlink:href="#path-4" fill="rgb(24,24,24)" fill-opacity="1"/>
      </g>
      <g>
        <use xlink:href="#path-5" fill="rgb(24,24,24)" fill-opacity="1"/>
      </g>
    </g>
  </g>
</svg>