<?xml version="1.0" encoding="utf-8"?>
<svg version="1.1" xmlns="http://www.w3.org/2000/svg" xmlns:xlink="http://www.w3.org/1999/xlink" 
height="17.872440944881895" width="18.549600706538058">
  <defs>
    <path id="path-1" opacity="1" fill-rule="evenodd" d="M17.286649169071598,15.65748031496063 L11.524432779381124,15.65748031496063 C11.524432779381124,16.879527559055113 10.498284655189698,17.872440944881895 9.23533311772318,17.872440944881895 C7.972381580256838,17.872440944881895 6.946233456065234,16.879527559055123 6.946233456065234,15.65748031496063 L1.1840170663747618,15.65748031496063 C0.7104102398249289,15.65748031496063 0.23680341327491655,15.351968503937004 0.15786894218333739,14.893700787401576 C0,14.435433070866146 0.15786894218333739,13.977165354330706 0.47360682655001257,13.671653543307091 C1.6576238929247744,12.831496062992136 2.289099661657945,11.456692913385833 2.289099661657945,10.08188976377953 L2.289099661657945,6.7212598425196886 C2.289099661657945,2.9787401574803196 5.367544034232398,0 9.23533311772318,0 C13.10312220121396,0 16.181566573788412,2.9787401574803143 16.181566573788412,6.721259842519683 L16.181566573788412,10.081889763779524 C16.181566573788412,11.45669291338582 16.891976813613343,12.831496062992123 17.997059408896344,13.671653543307082 C18.3917317643546,13.977165354330706 18.549600706537937,14.435433070866136 18.31279729326302,14.893700787401563 C18.233862822171442,15.351968503936993 17.76025599562143,15.65748031496062 17.286649169071598,15.65748031496063Z"/>
  </defs>
  <g transform="translate(-2.2737367544323206e-13, 0)" opacity="1">
    <g>
      <use xlink:href="#path-1" fill="rgb(170,170,170)" fill-opacity="1"/>
    </g>
  </g>
</svg>