<?xml version="1.0" encoding="utf-8"?>
<svg version="1.1" xmlns="http://www.w3.org/2000/svg" xmlns:xlink="http://www.w3.org/1999/xlink" height="50" width="50">
  <defs>
    <path id="path-1" opacity="1" fill-rule="evenodd" d="M0,25 C0,11.1875 11.1875,0 25,0 C38.8125,0 50,11.1875 50,25 C50,38.8125 38.8125,50 25,50 C11.1875,50 0,38.8125 0,25 L13.104166984558105,37.665245056152344 C15.928467750549316,41.426273345947266 20.210968017578125,43.83333206176758 25,43.83333206176758 C29.789031982421875,43.83333206176758 34.086883544921875,41.426273345947266 36.89583206176758,37.665245056152344 C36.49674606323242,36.679019927978516 35.6832275390625,36.01039123535156 34.02548599243164,35.592498779296875 L33.90652084350586,35.56252670288086 C30.436904907226562,34.688514709472656 27.243698120117188,33.884132385253906 28.822017669677734,30.661373138427734 C33.641746520996094,20.732254028320312 30.096023559570312,15.416666984558105 25,15.416666984558105 C19.796531677246094,15.416666984558105 16.34290313720703,20.932844161987305 21.1779842376709,30.644657135009766 C22.781301498413086,33.85930252075195 19.57208251953125,34.66855239868164 16.219804763793945,35.513877868652344 C16.138103485107422,35.534481048583984 16.056318283081055,35.55510330200195 15.974515914916992,35.575782775878906 C14.301424980163574,35.993675231933594 13.503252983093262,36.679019927978516 13.104166984558105,37.665245056152344 L0,25Z"/>
  </defs>
  <g opacity="1">
    <g opacity="1">
      <g opacity="1">
        <use xlink:href="#path-1" fill="rgb(210,217,227)" fill-opacity="1"/>
      </g>
    </g>
  </g>
</svg>