<?xml version="1.0" encoding="utf-8"?>
<svg version="1.1" xmlns="http://www.w3.org/2000/svg" xmlns:xlink="http://www.w3.org/1999/xlink" height="37.5540771484375" width="39.845672607421875">
  <defs>
    <path id="path-1" opacity="1" fill-rule="evenodd" d="M14.19500732421875,20.1163330078125 C13.32916259765625,20.04937744140625 12.9295654296875,19.71453857421875 12.9295654296875,18.97796630859375 C12.9295654296875,18.2413330078125 13.2625732421875,17.16986083984375 13.9285888671875,15.69659423828125 C14.661224365234375,14.22332763671875 15.46044921875,12.95098876953125 16.3262939453125,11.81256103515625 C16.792510986328125,11.20989990234375 17.058929443359375,10.67413330078125 17.058929443359375,10.33929443359375 C17.058929443359375,9.46875 16.6593017578125,9 15.79345703125,9 C15.06085205078125,9 14.19500732421875,9.669677734375 13.195953369140625,11.075927734375 C10.398651123046875,14.75909423828125 9,18.44219970703125 9,22.058349609375 C9,24.0003662109375 9.466217041015625,25.54058837890625 10.46527099609375,26.7459716796875 C11.46429443359375,27.951416015625 12.729736328125,28.5540771484375 14.2615966796875,28.5540771484375 C15.593658447265625,28.5540771484375 16.725921630859375,28.15228271484375 17.59173583984375,27.28173828125 C18.45758056640625,26.41119384765625 18.923797607421875,25.40667724609375 18.923797607421875,24.13433837890625 C18.923797607421875,23.0628662109375 18.590789794921875,22.19232177734375 17.92474365234375,21.38873291015625 C17.25872802734375,20.58514404296875 16.459503173828125,20.183349609375 15.527069091796875,20.1163330078125 L14.19500732421875,20.1163330078125 L26.1834716796875,20.1163330078125 C25.317657470703125,20.04937744140625 24.91802978515625,19.71453857421875 24.91802978515625,18.9779052734375 C24.91802978515625,18.5091552734375 25.051239013671875,17.906494140625 25.25103759765625,17.30377197265625 C26.05029296875,15.22784423828125 27.04931640625,13.41973876953125 28.2481689453125,11.8795166015625 C28.714385986328125,11.27685546875 28.980804443359375,10.7410888671875 28.980804443359375,10.40625 C28.980804443359375,9.53570556640625 28.5811767578125,9.06695556640625 27.71533203125,9.06695556640625 C26.916107177734375,9.06695556640625 26.05029296875,9.8035888671875 25.051239013671875,11.14288330078125 C22.320526123046875,14.89300537109375 20.921875,18.5091552734375 20.921875,22.058349609375 C20.921875,24.0003662109375 21.388092041015625,25.54058837890625 22.38714599609375,26.7459716796875 C23.38616943359375,27.95135498046875 24.651611328125,28.5540771484375 26.1834716796875,28.5540771484375 C27.515533447265625,28.5540771484375 28.647796630859375,28.15228271484375 29.51361083984375,27.28173828125 C30.37945556640625,26.4111328125 30.845672607421875,25.40667724609375 30.845672607421875,24.13433837890625 C30.845672607421875,23.0628662109375 30.512664794921875,22.19232177734375 29.84661865234375,21.38873291015625 C29.18060302734375,20.58514404296875 28.381378173828125,20.18328857421875 27.515533447265625,20.1163330078125 L26.1834716796875,20.1163330078125 L14.19500732421875,20.1163330078125Z"/>
    <mask id="mask-2" maskUnits="userSpaceOnUse" maskContentUnits="userSpaceOnUse" x="0" y="0">
      <rect opacity="1" x="0" y="0" width="39.845672607421875" height="37.5540771484375" fill="white"/>
      <use xlink:href="#path-1" fill="black"/>
    </mask>
  </defs>
  <g transform="translate(19.922836303710938, 18.77703857421875) rotate(180.00006436155007) translate(-19.922836303710938, -18.77703857421875)" opacity="1">
    <g>
      <use xlink:href="#path-1" fill="rgb(97,73,251)" fill-opacity="1"/>
      <use xlink:href="#path-1" fill-opacity="0" stroke="rgb(255,255,255)" stroke-opacity="1" stroke-width="18" stroke-linecap="butt" stroke-linejoin="miter" mask="url(#mask-2)"/>
    </g>
  </g>
</svg>