<?xml version="1.0" encoding="utf-8"?>
<svg version="1.1" xmlns="http://www.w3.org/2000/svg" xmlns:xlink="http://www.w3.org/1999/xlink" height="23.000027200681416" width="21">
  <defs>
    <path id="path-1" opacity="1" fill-rule="evenodd" d="M18.75,10.0625 L17.625,10.0625 L17.625,6.828125 C17.625,3.063720703125 14.428131103515625,0 10.5,0 C6.571868896484375,0 3.375,3.063720703125 3.375,6.828125 L3.375,10.0625 L2.25,10.0625 C1.0078125,10.0625 0,11.0283203125 0,12.21875 L0,20.84375 C0,22.0341796875 1.0078125,23 2.25,23 L18.75,23 C19.9921875,23 21,22.0341796875 21,20.84375 L21,12.21875 C21,11.0283203125 19.9921875,10.0625 18.75,10.0625 L7.125,6.828125 L7.125,10.0625 L13.875,10.0625 L13.875,6.828125 C13.875,5.044677734375 12.360931396484375,3.59375 10.5,3.59375 C8.639068603515625,3.59375 7.125,5.044677734375 7.125,6.828125 L12.375,17.609375 C12.375,18.6021728515625 11.53594970703125,19.40625 10.5,19.40625 C9.46405029296875,19.40625 8.625,18.6021728515625 8.625,17.609375 L8.625,15.453125 C8.625,14.4603271484375 9.46405029296875,13.65625 10.5,13.65625 C11.53594970703125,13.65625 12.375,14.4603271484375 12.375,15.453125 L12.375,17.609375 L18.75,10.0625Z"/>
  </defs>
  <g opacity="1">
    <use xlink:href="#path-1" fill="rgb(97,73,251)" fill-opacity="1"/>
  </g>
</svg>