<?xml version="1.0" encoding="utf-8"?>
<svg version="1.1" xmlns="http://www.w3.org/2000/svg" xmlns:xlink="http://www.w3.org/1999/xlink" height="14.976765413334874" width="13.674418604651237">
  <defs>
    <path id="path-1" opacity="1" fill-rule="evenodd" d="M12.2093077617983,6.552326936772374 L11.476748557696737,6.552326936772374 L11.476748557696737,4.446247835209874 C11.476748557696737,1.9949538898973742 9.395060630450644,0.000019807866124210705 6.837214561114706,0.000019807866124210705 C4.279360862384237,0.000019807866124210705 2.197680564532675,1.9949538898973742 2.197680564532675,4.446247835209874 L2.197680564532675,6.552326936772374 L1.4651213604311124,6.552326936772374 C0.6562529522279874,6.552326936772374 0.000002952227987407241,7.181233186772374 0.000002952227987407241,7.956440706303624 L0.000002952227987407241,13.572712678959874 C0.000002952227987407241,14.347859163334874 0.6562529522279874,14.976765413334874 1.4651213604311124,14.976765413334874 L12.2093077617983,14.976765413334874 C13.018168540606894,14.976765413334874 13.674418540606894,14.347859163334874 13.674418540606894,13.572712678959874 L13.674418540606894,7.956440706303624 C13.674418540606894,7.181233186772374 13.018168540606894,6.552326936772374 12.2093077617983,6.552326936772374 L4.639536948810019,4.446186800053624 L4.639536948810019,6.552326936772374 L9.034884544024862,6.552326936772374 L9.034884544024862,4.446186800053624 C9.034884544024862,3.284931917241124 8.048983665118612,2.340107698491124 6.837214561114706,2.340107698491124 C5.625437827716269,2.340107698491124 4.639536948810019,3.284931917241124 4.639536948810019,4.446186800053624 L8.058146567950644,11.466572542241124 C8.058146567950644,12.112995882084874 7.511775107989706,12.636616487553624 6.837214561114706,12.636616487553624 C6.162646384845175,12.636616487553624 5.616282554278769,12.112995882084874 5.616282554278769,11.466572542241124 L5.616282554278769,10.062458772709874 C5.616282554278769,9.416035432866124 6.162646384845175,8.892414827397374 6.837214561114706,8.892414827397374 C7.511775107989706,8.892414827397374 8.058146567950644,9.416035432866124 8.058146567950644,10.062458772709874 L8.058146567950644,11.466572542241124 L12.2093077617983,6.552326936772374Z"/>
  </defs>
  <g opacity="1">
    <use xlink:href="#path-1" fill="rgb(97,73,251)" fill-opacity="1"/>
  </g>
</svg>