<?xml version="1.0" encoding="utf-8"?>
<svg version="1.1" xmlns="http://www.w3.org/2000/svg" xmlns:xlink="http://www.w3.org/1999/xlink" height="17.081355392714613" width="16">
  <defs>
    <path id="path-1" opacity="1" fill-rule="evenodd" d="M8.616668701171875,0.1627481078199935 L15.01666259765625,2.8192422484449935 C15.6099853515625,3.0649697875074935 16,3.6460855101637435 16,4.2903115843824935 C16,11.638883361726243 11.470001220703125,15.733182678132493 8.61334228515625,16.918668517976243 C8.220001220703125,17.081388244538743 7.77667236328125,17.081388244538743 7.383331298828125,16.918668517976243 C3.816680908203125,15.437650451569993 0,10.881742248444993 0,4.2903115843824935 C0,3.6460855101637435 0.3900146484375,3.0649697875074935 0.986663818359375,2.8192422484449935 L7.38665771484375,0.1627481078199935 C7.779998779296875,0.00002838125749349274 8.22332763671875,0.00002838125749349274 8.616668701171875,0.1627481078199935 L7.30999755859375,12.721341857819993 L13.443328857421875,6.6113565062574935 C13.6533203125,6.4054849242262435 13.6533203125,6.0700967406324935 13.443328857421875,5.8609292601637435 L12.69000244140625,5.1104409789137435 C12.48333740234375,4.9045693968824935 12.143341064453125,4.9045693968824935 11.936676025390625,5.1104409789137435 L6.933319091796875,10.094754943757493 L4.5966796875,7.7669351195387435 C4.389984130859375,7.5610635375074935 4.04998779296875,7.5610635375074935 3.84332275390625,7.7669351195387435 L3.089996337890625,8.517423400788743 C2.883331298828125,8.723294982819993 2.883331298828125,9.061979064851243 3.089996337890625,9.267911682038743 L6.556671142578125,12.721341857819993 C6.763336181640625,12.927213439851243 7.10333251953125,12.927213439851243 7.30999755859375,12.721341857819993 L8.616668701171875,0.1627481078199935Z"/>
  </defs>
  <g opacity="1">
    <g opacity="1">
      <g opacity="1">
        <use xlink:href="#path-1" fill="rgb(102,215,92)" fill-opacity="1"/>
      </g>
    </g>
  </g>
</svg>