<?xml version="1.0" encoding="utf-8"?>
<svg version="1.1" xmlns="http://www.w3.org/2000/svg" xmlns:xlink="http://www.w3.org/1999/xlink" height="22.1052834493953" width="21">
  <defs>
    <path id="path-1" opacity="1" fill-rule="evenodd" d="M11.30938720703125,0.21057363646059457 L19.7093505859375,3.6484398473980946 C20.48809814453125,3.9664330114605946 21,4.718386136460595 21,5.552126370835595 C21,15.062014066148095 15.05438232421875,20.360598050523095 11.30499267578125,21.894777738023095 C10.78875732421875,22.105226956773095 10.20684814453125,22.105226956773095 9.69061279296875,21.894777738023095 C5.0093994140625,19.978151761460595 0,14.082277738023095 0,5.552126370835595 C0,4.718386136460595 0.51190185546875,3.9664330114605946 1.29498291015625,3.6484398473980946 L9.69500732421875,0.21057363646059457 C10.21124267578125,0.0000023473980945709627 10.79315185546875,0.0000023473980945709627 11.30938720703125,0.21057363646059457 L9.5943603515625,16.462892972398095 L17.64434814453125,8.555910550523095 C17.91998291015625,8.289431058335595 17.91998291015625,7.855349027085595 17.64434814453125,7.584719144273095 L16.6556396484375,6.613527738023095 C16.38433837890625,6.347048245835595 15.9381103515625,6.347048245835595 15.6668701171875,6.613527738023095 L9.0999755859375,13.063723050523095 L6.03314208984375,10.051271878648095 C5.7618408203125,9.784914456773095 5.31561279296875,9.784914456773095 5.04437255859375,10.051271878648095 L4.05560302734375,11.022463284898095 C3.78436279296875,11.288942777085595 3.78436279296875,11.727297269273095 4.05560302734375,11.993654691148095 L8.6055908203125,16.462892972398095 C8.87689208984375,16.729372464585595 9.3231201171875,16.729372464585595 9.5943603515625,16.462892972398095 L11.30938720703125,0.21057363646059457Z"/>
  </defs>
  <g opacity="1">
    <g opacity="1">
      <use xlink:href="#path-1" fill="rgb(102,215,92)" fill-opacity="1"/>
    </g>
  </g>
</svg>